# xmcd
#
# Track frame offsets: 
#        150
#        9951
#        25680
#        42443
#        61786
#        74699
#        90028
#        109151
#        124432
#        141868
#        157514
#        174910
#
# Disc length: 2544 seconds
#
# Revision: 1
# Processed by: cddbd v1.5.2PL0 Copyright (c) Steve Scherf et al.
# Submitted via: ExactAudioCopyFreeDBPlugin 1.0
#
DISCID=8c09ee0c
DTITLE=B.o.B - Ether
DYEAR=2017
DGENRE=Hip-Hop
TTITLE0=Fan Mail
TTITLE1=E.T. (feat. Lil Wayne)
TTITLE2=B.o.B. - Middle Man
TTITLE3=Peace Piece (feat. Big K.R.I.T.)
TTITLE4=Finesse
TTITLE5=Xantastic (feat. Young Thug)
TTITLE6=Tweakin (feat. Young Dro and London Jae)
TTITLE7=4 Lit (feat. T.I. and Ty Dolla $ign)
TTITLE8=Substance Abuse
TTITLE9=Avalanche
TTITLE10=I Know (feat. WurlD)
TTITLE11=Big Kids (feat. CeeLo Green and Usher)
EXTD=
EXTT0=
EXTT1=
EXTT2=
EXTT3=
EXTT4=
EXTT5=
EXTT6=
EXTT7=
EXTT8=
EXTT9=
EXTT10=
EXTT11=
PLAYORDER=
